<mxfile host="app.diagrams.net" agent="Mozilla/5.0 (Windows NT 10.0; Win64; x64) AppleWebKit/537.36 (KHTML, like Gecko) Chrome/131.0.0.0 Safari/537.36" version="25.0.1">
  <diagram id="C5RBs43oDa-KdzZeNtuy" name="Page-1">
    <mxGraphModel dx="1050" dy="596" grid="1" gridSize="10" guides="1" tooltips="1" connect="1" arrows="1" fold="1" page="1" pageScale="1" pageWidth="5500" pageHeight="1600" background="none" math="0" shadow="1">
      <root>
        <mxCell id="WIyWlLk6GJQsqaUBKTNV-0" />
        <mxCell id="WIyWlLk6GJQsqaUBKTNV-1" parent="WIyWlLk6GJQsqaUBKTNV-0" />
        <mxCell id="WIyWlLk6GJQsqaUBKTNV-3" value="" style="rounded=1;whiteSpace=wrap;html=1;fontSize=12;glass=0;strokeWidth=1;shadow=0;" parent="WIyWlLk6GJQsqaUBKTNV-1" vertex="1">
          <mxGeometry x="490" y="10" width="140" height="140" as="geometry" />
        </mxCell>
        <mxCell id="BKNKdVUoNQHvMvMaWqLU-1" value="" style="shape=table;startSize=0;container=1;collapsible=0;childLayout=tableLayout;fontSize=11;fillColor=none;strokeColor=none;" vertex="1" parent="WIyWlLk6GJQsqaUBKTNV-1">
          <mxGeometry x="500" y="25" width="120" height="110" as="geometry" />
        </mxCell>
        <mxCell id="BKNKdVUoNQHvMvMaWqLU-2" value="" style="shape=tableRow;horizontal=0;startSize=0;swimlaneHead=0;swimlaneBody=0;strokeColor=inherit;top=0;left=0;bottom=0;right=0;collapsible=0;dropTarget=0;fillColor=none;points=[[0,0.5],[1,0.5]];portConstraint=eastwest;fontSize=16;" vertex="1" parent="BKNKdVUoNQHvMvMaWqLU-1">
          <mxGeometry width="120" height="28" as="geometry" />
        </mxCell>
        <mxCell id="BKNKdVUoNQHvMvMaWqLU-3" value="LRN" style="shape=partialRectangle;html=1;whiteSpace=wrap;connectable=0;strokeColor=inherit;overflow=hidden;fillColor=none;top=0;left=0;bottom=0;right=0;pointerEvents=1;fontSize=12;align=left;spacingLeft=5;" vertex="1" parent="BKNKdVUoNQHvMvMaWqLU-2">
          <mxGeometry width="120" height="28" as="geometry">
            <mxRectangle width="120" height="28" as="alternateBounds" />
          </mxGeometry>
        </mxCell>
        <mxCell id="BKNKdVUoNQHvMvMaWqLU-4" value="" style="shape=tableRow;horizontal=0;startSize=0;swimlaneHead=0;swimlaneBody=0;strokeColor=inherit;top=0;left=0;bottom=0;right=0;collapsible=0;dropTarget=0;fillColor=none;points=[[0,0.5],[1,0.5]];portConstraint=eastwest;fontSize=16;" vertex="1" parent="BKNKdVUoNQHvMvMaWqLU-1">
          <mxGeometry y="28" width="120" height="27" as="geometry" />
        </mxCell>
        <mxCell id="BKNKdVUoNQHvMvMaWqLU-5" value="" style="shape=partialRectangle;html=1;whiteSpace=wrap;connectable=0;strokeColor=inherit;overflow=hidden;fillColor=none;top=0;left=0;bottom=0;right=0;pointerEvents=1;fontSize=12;align=left;spacingLeft=5;" vertex="1" parent="BKNKdVUoNQHvMvMaWqLU-4">
          <mxGeometry width="120" height="27" as="geometry">
            <mxRectangle width="120" height="27" as="alternateBounds" />
          </mxGeometry>
        </mxCell>
        <mxCell id="BKNKdVUoNQHvMvMaWqLU-6" value="" style="shape=tableRow;horizontal=0;startSize=0;swimlaneHead=0;swimlaneBody=0;strokeColor=inherit;top=0;left=0;bottom=0;right=0;collapsible=0;dropTarget=0;fillColor=none;points=[[0,0.5],[1,0.5]];portConstraint=eastwest;fontSize=16;" vertex="1" parent="BKNKdVUoNQHvMvMaWqLU-1">
          <mxGeometry y="55" width="120" height="28" as="geometry" />
        </mxCell>
        <mxCell id="BKNKdVUoNQHvMvMaWqLU-7" value="" style="shape=partialRectangle;html=1;whiteSpace=wrap;connectable=0;strokeColor=inherit;overflow=hidden;fillColor=none;top=0;left=0;bottom=0;right=0;pointerEvents=1;fontSize=12;align=left;spacingLeft=5;" vertex="1" parent="BKNKdVUoNQHvMvMaWqLU-6">
          <mxGeometry width="120" height="28" as="geometry">
            <mxRectangle width="120" height="28" as="alternateBounds" />
          </mxGeometry>
        </mxCell>
        <mxCell id="BKNKdVUoNQHvMvMaWqLU-8" style="shape=tableRow;horizontal=0;startSize=0;swimlaneHead=0;swimlaneBody=0;strokeColor=inherit;top=0;left=0;bottom=0;right=0;collapsible=0;dropTarget=0;fillColor=none;points=[[0,0.5],[1,0.5]];portConstraint=eastwest;fontSize=16;" vertex="1" parent="BKNKdVUoNQHvMvMaWqLU-1">
          <mxGeometry y="83" width="120" height="27" as="geometry" />
        </mxCell>
        <mxCell id="BKNKdVUoNQHvMvMaWqLU-9" value="" style="shape=partialRectangle;html=1;whiteSpace=wrap;connectable=0;strokeColor=inherit;overflow=hidden;fillColor=none;top=0;left=0;bottom=0;right=0;pointerEvents=1;fontSize=12;align=left;spacingLeft=5;" vertex="1" parent="BKNKdVUoNQHvMvMaWqLU-8">
          <mxGeometry width="120" height="27" as="geometry">
            <mxRectangle width="120" height="27" as="alternateBounds" />
          </mxGeometry>
        </mxCell>
        <mxCell id="BKNKdVUoNQHvMvMaWqLU-10" value="First Name" style="shape=partialRectangle;html=1;whiteSpace=wrap;connectable=0;strokeColor=inherit;overflow=hidden;fillColor=none;top=0;left=0;bottom=0;right=0;pointerEvents=1;fontSize=12;align=left;spacingLeft=5;" vertex="1" parent="WIyWlLk6GJQsqaUBKTNV-1">
          <mxGeometry x="500" y="53.5" width="120" height="28" as="geometry">
            <mxRectangle width="120" height="28" as="alternateBounds" />
          </mxGeometry>
        </mxCell>
        <mxCell id="BKNKdVUoNQHvMvMaWqLU-11" value="Middle Name" style="shape=partialRectangle;html=1;whiteSpace=wrap;connectable=0;strokeColor=inherit;overflow=hidden;fillColor=none;top=0;left=0;bottom=0;right=0;pointerEvents=1;fontSize=12;align=left;spacingLeft=5;" vertex="1" parent="WIyWlLk6GJQsqaUBKTNV-1">
          <mxGeometry x="500" y="81.5" width="120" height="28" as="geometry">
            <mxRectangle width="120" height="28" as="alternateBounds" />
          </mxGeometry>
        </mxCell>
        <mxCell id="BKNKdVUoNQHvMvMaWqLU-12" value="Last Name" style="shape=partialRectangle;html=1;whiteSpace=wrap;connectable=0;strokeColor=inherit;overflow=hidden;fillColor=none;top=0;left=0;bottom=0;right=0;pointerEvents=1;fontSize=12;align=left;spacingLeft=5;" vertex="1" parent="WIyWlLk6GJQsqaUBKTNV-1">
          <mxGeometry x="500" y="109.5" width="120" height="28" as="geometry">
            <mxRectangle width="120" height="28" as="alternateBounds" />
          </mxGeometry>
        </mxCell>
        <mxCell id="BKNKdVUoNQHvMvMaWqLU-13" value="" style="rounded=1;whiteSpace=wrap;html=1;fontSize=12;glass=0;strokeWidth=1;shadow=0;" vertex="1" parent="WIyWlLk6GJQsqaUBKTNV-1">
          <mxGeometry x="190" y="210" width="140" height="140" as="geometry" />
        </mxCell>
        <mxCell id="BKNKdVUoNQHvMvMaWqLU-14" value="" style="shape=table;startSize=0;container=1;collapsible=0;childLayout=tableLayout;fontSize=11;fillColor=none;strokeColor=none;" vertex="1" parent="WIyWlLk6GJQsqaUBKTNV-1">
          <mxGeometry x="200" y="225" width="120" height="110" as="geometry" />
        </mxCell>
        <mxCell id="BKNKdVUoNQHvMvMaWqLU-15" value="" style="shape=tableRow;horizontal=0;startSize=0;swimlaneHead=0;swimlaneBody=0;strokeColor=inherit;top=0;left=0;bottom=0;right=0;collapsible=0;dropTarget=0;fillColor=none;points=[[0,0.5],[1,0.5]];portConstraint=eastwest;fontSize=16;" vertex="1" parent="BKNKdVUoNQHvMvMaWqLU-14">
          <mxGeometry width="120" height="28" as="geometry" />
        </mxCell>
        <mxCell id="BKNKdVUoNQHvMvMaWqLU-16" value="Father First Name" style="shape=partialRectangle;html=1;whiteSpace=wrap;connectable=0;strokeColor=inherit;overflow=hidden;fillColor=none;top=0;left=0;bottom=0;right=0;pointerEvents=1;fontSize=12;align=left;spacingLeft=5;" vertex="1" parent="BKNKdVUoNQHvMvMaWqLU-15">
          <mxGeometry width="120" height="28" as="geometry">
            <mxRectangle width="120" height="28" as="alternateBounds" />
          </mxGeometry>
        </mxCell>
        <mxCell id="BKNKdVUoNQHvMvMaWqLU-17" value="" style="shape=tableRow;horizontal=0;startSize=0;swimlaneHead=0;swimlaneBody=0;strokeColor=inherit;top=0;left=0;bottom=0;right=0;collapsible=0;dropTarget=0;fillColor=none;points=[[0,0.5],[1,0.5]];portConstraint=eastwest;fontSize=16;" vertex="1" parent="BKNKdVUoNQHvMvMaWqLU-14">
          <mxGeometry y="28" width="120" height="27" as="geometry" />
        </mxCell>
        <mxCell id="BKNKdVUoNQHvMvMaWqLU-18" value="" style="shape=partialRectangle;html=1;whiteSpace=wrap;connectable=0;strokeColor=inherit;overflow=hidden;fillColor=none;top=0;left=0;bottom=0;right=0;pointerEvents=1;fontSize=12;align=left;spacingLeft=5;" vertex="1" parent="BKNKdVUoNQHvMvMaWqLU-17">
          <mxGeometry width="120" height="27" as="geometry">
            <mxRectangle width="120" height="27" as="alternateBounds" />
          </mxGeometry>
        </mxCell>
        <mxCell id="BKNKdVUoNQHvMvMaWqLU-19" value="" style="shape=tableRow;horizontal=0;startSize=0;swimlaneHead=0;swimlaneBody=0;strokeColor=inherit;top=0;left=0;bottom=0;right=0;collapsible=0;dropTarget=0;fillColor=none;points=[[0,0.5],[1,0.5]];portConstraint=eastwest;fontSize=16;" vertex="1" parent="BKNKdVUoNQHvMvMaWqLU-14">
          <mxGeometry y="55" width="120" height="28" as="geometry" />
        </mxCell>
        <mxCell id="BKNKdVUoNQHvMvMaWqLU-20" value="" style="shape=partialRectangle;html=1;whiteSpace=wrap;connectable=0;strokeColor=inherit;overflow=hidden;fillColor=none;top=0;left=0;bottom=0;right=0;pointerEvents=1;fontSize=12;align=left;spacingLeft=5;" vertex="1" parent="BKNKdVUoNQHvMvMaWqLU-19">
          <mxGeometry width="120" height="28" as="geometry">
            <mxRectangle width="120" height="28" as="alternateBounds" />
          </mxGeometry>
        </mxCell>
        <mxCell id="BKNKdVUoNQHvMvMaWqLU-21" style="shape=tableRow;horizontal=0;startSize=0;swimlaneHead=0;swimlaneBody=0;strokeColor=inherit;top=0;left=0;bottom=0;right=0;collapsible=0;dropTarget=0;fillColor=none;points=[[0,0.5],[1,0.5]];portConstraint=eastwest;fontSize=16;" vertex="1" parent="BKNKdVUoNQHvMvMaWqLU-14">
          <mxGeometry y="83" width="120" height="27" as="geometry" />
        </mxCell>
        <mxCell id="BKNKdVUoNQHvMvMaWqLU-22" value="" style="shape=partialRectangle;html=1;whiteSpace=wrap;connectable=0;strokeColor=inherit;overflow=hidden;fillColor=none;top=0;left=0;bottom=0;right=0;pointerEvents=1;fontSize=12;align=left;spacingLeft=5;" vertex="1" parent="BKNKdVUoNQHvMvMaWqLU-21">
          <mxGeometry width="120" height="27" as="geometry">
            <mxRectangle width="120" height="27" as="alternateBounds" />
          </mxGeometry>
        </mxCell>
        <mxCell id="BKNKdVUoNQHvMvMaWqLU-26" value="Father Middle Name" style="shape=partialRectangle;html=1;whiteSpace=wrap;connectable=0;strokeColor=inherit;overflow=hidden;fillColor=none;top=0;left=0;bottom=0;right=0;pointerEvents=1;fontSize=12;align=left;spacingLeft=5;" vertex="1" parent="WIyWlLk6GJQsqaUBKTNV-1">
          <mxGeometry x="200" y="250" width="120" height="35" as="geometry">
            <mxRectangle width="120" height="28" as="alternateBounds" />
          </mxGeometry>
        </mxCell>
        <mxCell id="BKNKdVUoNQHvMvMaWqLU-27" value="Father Last Name" style="shape=partialRectangle;html=1;whiteSpace=wrap;connectable=0;strokeColor=inherit;overflow=hidden;fillColor=none;top=0;left=0;bottom=0;right=0;pointerEvents=1;fontSize=12;align=left;spacingLeft=5;" vertex="1" parent="WIyWlLk6GJQsqaUBKTNV-1">
          <mxGeometry x="200" y="278" width="120" height="35" as="geometry">
            <mxRectangle width="120" height="28" as="alternateBounds" />
          </mxGeometry>
        </mxCell>
        <mxCell id="BKNKdVUoNQHvMvMaWqLU-28" value="Contacts" style="shape=partialRectangle;html=1;whiteSpace=wrap;connectable=0;strokeColor=inherit;overflow=hidden;fillColor=none;top=0;left=0;bottom=0;right=0;pointerEvents=1;fontSize=12;align=left;spacingLeft=5;" vertex="1" parent="WIyWlLk6GJQsqaUBKTNV-1">
          <mxGeometry x="200" y="302.5" width="120" height="35" as="geometry">
            <mxRectangle width="120" height="28" as="alternateBounds" />
          </mxGeometry>
        </mxCell>
        <mxCell id="BKNKdVUoNQHvMvMaWqLU-29" value="" style="rounded=1;whiteSpace=wrap;html=1;fontSize=12;glass=0;strokeWidth=1;shadow=0;" vertex="1" parent="WIyWlLk6GJQsqaUBKTNV-1">
          <mxGeometry x="490" y="210" width="140" height="140" as="geometry" />
        </mxCell>
        <mxCell id="BKNKdVUoNQHvMvMaWqLU-30" value="" style="shape=table;startSize=0;container=1;collapsible=0;childLayout=tableLayout;fontSize=11;fillColor=none;strokeColor=none;" vertex="1" parent="WIyWlLk6GJQsqaUBKTNV-1">
          <mxGeometry x="340" y="215" width="120" height="110" as="geometry" />
        </mxCell>
        <mxCell id="BKNKdVUoNQHvMvMaWqLU-31" value="" style="shape=tableRow;horizontal=0;startSize=0;swimlaneHead=0;swimlaneBody=0;strokeColor=inherit;top=0;left=0;bottom=0;right=0;collapsible=0;dropTarget=0;fillColor=none;points=[[0,0.5],[1,0.5]];portConstraint=eastwest;fontSize=16;" vertex="1" parent="BKNKdVUoNQHvMvMaWqLU-30">
          <mxGeometry width="120" height="28" as="geometry" />
        </mxCell>
        <mxCell id="BKNKdVUoNQHvMvMaWqLU-32" value="Mother First Name" style="shape=partialRectangle;html=1;whiteSpace=wrap;connectable=0;strokeColor=inherit;overflow=hidden;fillColor=none;top=0;left=0;bottom=0;right=0;pointerEvents=1;fontSize=12;align=left;spacingLeft=5;" vertex="1" parent="BKNKdVUoNQHvMvMaWqLU-31">
          <mxGeometry width="120" height="28" as="geometry">
            <mxRectangle width="120" height="28" as="alternateBounds" />
          </mxGeometry>
        </mxCell>
        <mxCell id="BKNKdVUoNQHvMvMaWqLU-33" value="" style="shape=tableRow;horizontal=0;startSize=0;swimlaneHead=0;swimlaneBody=0;strokeColor=inherit;top=0;left=0;bottom=0;right=0;collapsible=0;dropTarget=0;fillColor=none;points=[[0,0.5],[1,0.5]];portConstraint=eastwest;fontSize=16;" vertex="1" parent="BKNKdVUoNQHvMvMaWqLU-30">
          <mxGeometry y="28" width="120" height="27" as="geometry" />
        </mxCell>
        <mxCell id="BKNKdVUoNQHvMvMaWqLU-34" value="" style="shape=partialRectangle;html=1;whiteSpace=wrap;connectable=0;strokeColor=inherit;overflow=hidden;fillColor=none;top=0;left=0;bottom=0;right=0;pointerEvents=1;fontSize=12;align=left;spacingLeft=5;" vertex="1" parent="BKNKdVUoNQHvMvMaWqLU-33">
          <mxGeometry width="120" height="27" as="geometry">
            <mxRectangle width="120" height="27" as="alternateBounds" />
          </mxGeometry>
        </mxCell>
        <mxCell id="BKNKdVUoNQHvMvMaWqLU-35" value="" style="shape=tableRow;horizontal=0;startSize=0;swimlaneHead=0;swimlaneBody=0;strokeColor=inherit;top=0;left=0;bottom=0;right=0;collapsible=0;dropTarget=0;fillColor=none;points=[[0,0.5],[1,0.5]];portConstraint=eastwest;fontSize=16;" vertex="1" parent="BKNKdVUoNQHvMvMaWqLU-30">
          <mxGeometry y="55" width="120" height="28" as="geometry" />
        </mxCell>
        <mxCell id="BKNKdVUoNQHvMvMaWqLU-36" value="" style="shape=partialRectangle;html=1;whiteSpace=wrap;connectable=0;strokeColor=inherit;overflow=hidden;fillColor=none;top=0;left=0;bottom=0;right=0;pointerEvents=1;fontSize=12;align=left;spacingLeft=5;" vertex="1" parent="BKNKdVUoNQHvMvMaWqLU-35">
          <mxGeometry width="120" height="28" as="geometry">
            <mxRectangle width="120" height="28" as="alternateBounds" />
          </mxGeometry>
        </mxCell>
        <mxCell id="BKNKdVUoNQHvMvMaWqLU-37" style="shape=tableRow;horizontal=0;startSize=0;swimlaneHead=0;swimlaneBody=0;strokeColor=inherit;top=0;left=0;bottom=0;right=0;collapsible=0;dropTarget=0;fillColor=none;points=[[0,0.5],[1,0.5]];portConstraint=eastwest;fontSize=16;" vertex="1" parent="BKNKdVUoNQHvMvMaWqLU-30">
          <mxGeometry y="83" width="120" height="27" as="geometry" />
        </mxCell>
        <mxCell id="BKNKdVUoNQHvMvMaWqLU-38" value="" style="shape=partialRectangle;html=1;whiteSpace=wrap;connectable=0;strokeColor=inherit;overflow=hidden;fillColor=none;top=0;left=0;bottom=0;right=0;pointerEvents=1;fontSize=12;align=left;spacingLeft=5;" vertex="1" parent="BKNKdVUoNQHvMvMaWqLU-37">
          <mxGeometry width="120" height="27" as="geometry">
            <mxRectangle width="120" height="27" as="alternateBounds" />
          </mxGeometry>
        </mxCell>
        <mxCell id="BKNKdVUoNQHvMvMaWqLU-39" value="Mother Middle Name" style="shape=partialRectangle;html=1;whiteSpace=wrap;connectable=0;strokeColor=inherit;overflow=hidden;fillColor=none;top=0;left=0;bottom=0;right=0;pointerEvents=1;fontSize=12;align=left;spacingLeft=5;" vertex="1" parent="WIyWlLk6GJQsqaUBKTNV-1">
          <mxGeometry x="340" y="240" width="120" height="35" as="geometry">
            <mxRectangle width="120" height="28" as="alternateBounds" />
          </mxGeometry>
        </mxCell>
        <mxCell id="BKNKdVUoNQHvMvMaWqLU-40" value="Mother&amp;nbsp;Last Name" style="shape=partialRectangle;html=1;whiteSpace=wrap;connectable=0;strokeColor=inherit;overflow=hidden;fillColor=none;top=0;left=0;bottom=0;right=0;pointerEvents=1;fontSize=12;align=left;spacingLeft=5;" vertex="1" parent="WIyWlLk6GJQsqaUBKTNV-1">
          <mxGeometry x="340" y="268" width="120" height="35" as="geometry">
            <mxRectangle width="120" height="28" as="alternateBounds" />
          </mxGeometry>
        </mxCell>
        <mxCell id="BKNKdVUoNQHvMvMaWqLU-41" value="Contacts" style="shape=partialRectangle;html=1;whiteSpace=wrap;connectable=0;strokeColor=inherit;overflow=hidden;fillColor=none;top=0;left=0;bottom=0;right=0;pointerEvents=1;fontSize=12;align=left;spacingLeft=5;" vertex="1" parent="WIyWlLk6GJQsqaUBKTNV-1">
          <mxGeometry x="340" y="292.5" width="120" height="35" as="geometry">
            <mxRectangle width="120" height="28" as="alternateBounds" />
          </mxGeometry>
        </mxCell>
        <mxCell id="BKNKdVUoNQHvMvMaWqLU-42" value="" style="rounded=1;whiteSpace=wrap;html=1;fontSize=12;glass=0;strokeWidth=1;shadow=0;" vertex="1" parent="WIyWlLk6GJQsqaUBKTNV-1">
          <mxGeometry x="340" y="210" width="140" height="140" as="geometry" />
        </mxCell>
        <mxCell id="BKNKdVUoNQHvMvMaWqLU-43" value="" style="shape=table;startSize=0;container=1;collapsible=0;childLayout=tableLayout;fontSize=11;fillColor=none;strokeColor=none;" vertex="1" parent="WIyWlLk6GJQsqaUBKTNV-1">
          <mxGeometry x="350" y="225" width="120" height="110" as="geometry" />
        </mxCell>
        <mxCell id="BKNKdVUoNQHvMvMaWqLU-44" value="" style="shape=tableRow;horizontal=0;startSize=0;swimlaneHead=0;swimlaneBody=0;strokeColor=inherit;top=0;left=0;bottom=0;right=0;collapsible=0;dropTarget=0;fillColor=none;points=[[0,0.5],[1,0.5]];portConstraint=eastwest;fontSize=16;" vertex="1" parent="BKNKdVUoNQHvMvMaWqLU-43">
          <mxGeometry width="120" height="28" as="geometry" />
        </mxCell>
        <mxCell id="BKNKdVUoNQHvMvMaWqLU-45" value="Mother First Name" style="shape=partialRectangle;html=1;whiteSpace=wrap;connectable=0;strokeColor=inherit;overflow=hidden;fillColor=none;top=0;left=0;bottom=0;right=0;pointerEvents=1;fontSize=12;align=left;spacingLeft=5;" vertex="1" parent="BKNKdVUoNQHvMvMaWqLU-44">
          <mxGeometry width="120" height="28" as="geometry">
            <mxRectangle width="120" height="28" as="alternateBounds" />
          </mxGeometry>
        </mxCell>
        <mxCell id="BKNKdVUoNQHvMvMaWqLU-46" value="" style="shape=tableRow;horizontal=0;startSize=0;swimlaneHead=0;swimlaneBody=0;strokeColor=inherit;top=0;left=0;bottom=0;right=0;collapsible=0;dropTarget=0;fillColor=none;points=[[0,0.5],[1,0.5]];portConstraint=eastwest;fontSize=16;" vertex="1" parent="BKNKdVUoNQHvMvMaWqLU-43">
          <mxGeometry y="28" width="120" height="27" as="geometry" />
        </mxCell>
        <mxCell id="BKNKdVUoNQHvMvMaWqLU-47" value="" style="shape=partialRectangle;html=1;whiteSpace=wrap;connectable=0;strokeColor=inherit;overflow=hidden;fillColor=none;top=0;left=0;bottom=0;right=0;pointerEvents=1;fontSize=12;align=left;spacingLeft=5;" vertex="1" parent="BKNKdVUoNQHvMvMaWqLU-46">
          <mxGeometry width="120" height="27" as="geometry">
            <mxRectangle width="120" height="27" as="alternateBounds" />
          </mxGeometry>
        </mxCell>
        <mxCell id="BKNKdVUoNQHvMvMaWqLU-48" value="" style="shape=tableRow;horizontal=0;startSize=0;swimlaneHead=0;swimlaneBody=0;strokeColor=inherit;top=0;left=0;bottom=0;right=0;collapsible=0;dropTarget=0;fillColor=none;points=[[0,0.5],[1,0.5]];portConstraint=eastwest;fontSize=16;" vertex="1" parent="BKNKdVUoNQHvMvMaWqLU-43">
          <mxGeometry y="55" width="120" height="28" as="geometry" />
        </mxCell>
        <mxCell id="BKNKdVUoNQHvMvMaWqLU-49" value="" style="shape=partialRectangle;html=1;whiteSpace=wrap;connectable=0;strokeColor=inherit;overflow=hidden;fillColor=none;top=0;left=0;bottom=0;right=0;pointerEvents=1;fontSize=12;align=left;spacingLeft=5;" vertex="1" parent="BKNKdVUoNQHvMvMaWqLU-48">
          <mxGeometry width="120" height="28" as="geometry">
            <mxRectangle width="120" height="28" as="alternateBounds" />
          </mxGeometry>
        </mxCell>
        <mxCell id="BKNKdVUoNQHvMvMaWqLU-50" style="shape=tableRow;horizontal=0;startSize=0;swimlaneHead=0;swimlaneBody=0;strokeColor=inherit;top=0;left=0;bottom=0;right=0;collapsible=0;dropTarget=0;fillColor=none;points=[[0,0.5],[1,0.5]];portConstraint=eastwest;fontSize=16;" vertex="1" parent="BKNKdVUoNQHvMvMaWqLU-43">
          <mxGeometry y="83" width="120" height="27" as="geometry" />
        </mxCell>
        <mxCell id="BKNKdVUoNQHvMvMaWqLU-51" value="" style="shape=partialRectangle;html=1;whiteSpace=wrap;connectable=0;strokeColor=inherit;overflow=hidden;fillColor=none;top=0;left=0;bottom=0;right=0;pointerEvents=1;fontSize=12;align=left;spacingLeft=5;" vertex="1" parent="BKNKdVUoNQHvMvMaWqLU-50">
          <mxGeometry width="120" height="27" as="geometry">
            <mxRectangle width="120" height="27" as="alternateBounds" />
          </mxGeometry>
        </mxCell>
        <mxCell id="BKNKdVUoNQHvMvMaWqLU-52" value="Mother Middle Name" style="shape=partialRectangle;html=1;whiteSpace=wrap;connectable=0;strokeColor=inherit;overflow=hidden;fillColor=none;top=0;left=0;bottom=0;right=0;pointerEvents=1;fontSize=12;align=left;spacingLeft=5;" vertex="1" parent="WIyWlLk6GJQsqaUBKTNV-1">
          <mxGeometry x="350" y="250" width="120" height="35" as="geometry">
            <mxRectangle width="120" height="28" as="alternateBounds" />
          </mxGeometry>
        </mxCell>
        <mxCell id="BKNKdVUoNQHvMvMaWqLU-53" value="Mother&amp;nbsp;Last Name" style="shape=partialRectangle;html=1;whiteSpace=wrap;connectable=0;strokeColor=inherit;overflow=hidden;fillColor=none;top=0;left=0;bottom=0;right=0;pointerEvents=1;fontSize=12;align=left;spacingLeft=5;" vertex="1" parent="WIyWlLk6GJQsqaUBKTNV-1">
          <mxGeometry x="350" y="278" width="120" height="35" as="geometry">
            <mxRectangle width="120" height="28" as="alternateBounds" />
          </mxGeometry>
        </mxCell>
        <mxCell id="BKNKdVUoNQHvMvMaWqLU-54" value="Contacts" style="shape=partialRectangle;html=1;whiteSpace=wrap;connectable=0;strokeColor=inherit;overflow=hidden;fillColor=none;top=0;left=0;bottom=0;right=0;pointerEvents=1;fontSize=12;align=left;spacingLeft=5;" vertex="1" parent="WIyWlLk6GJQsqaUBKTNV-1">
          <mxGeometry x="350" y="302.5" width="120" height="35" as="geometry">
            <mxRectangle width="120" height="28" as="alternateBounds" />
          </mxGeometry>
        </mxCell>
        <mxCell id="BKNKdVUoNQHvMvMaWqLU-55" value="Gender" style="shape=partialRectangle;html=1;whiteSpace=wrap;connectable=0;strokeColor=inherit;overflow=hidden;fillColor=none;top=0;left=0;bottom=0;right=0;pointerEvents=1;fontSize=12;align=left;spacingLeft=5;" vertex="1" parent="WIyWlLk6GJQsqaUBKTNV-1">
          <mxGeometry x="500" y="222" width="120" height="28" as="geometry">
            <mxRectangle width="120" height="28" as="alternateBounds" />
          </mxGeometry>
        </mxCell>
        <mxCell id="BKNKdVUoNQHvMvMaWqLU-56" value="Birthdate" style="shape=partialRectangle;html=1;whiteSpace=wrap;connectable=0;strokeColor=inherit;overflow=hidden;fillColor=none;top=0;left=0;bottom=0;right=0;pointerEvents=1;fontSize=12;align=left;spacingLeft=5;" vertex="1" parent="WIyWlLk6GJQsqaUBKTNV-1">
          <mxGeometry x="500" y="247" width="120" height="28" as="geometry">
            <mxRectangle width="120" height="28" as="alternateBounds" />
          </mxGeometry>
        </mxCell>
        <mxCell id="BKNKdVUoNQHvMvMaWqLU-57" value="Age" style="shape=partialRectangle;html=1;whiteSpace=wrap;connectable=0;strokeColor=inherit;overflow=hidden;fillColor=none;top=0;left=0;bottom=0;right=0;pointerEvents=1;fontSize=12;align=left;spacingLeft=5;" vertex="1" parent="WIyWlLk6GJQsqaUBKTNV-1">
          <mxGeometry x="500" y="274.5" width="120" height="28" as="geometry">
            <mxRectangle width="120" height="28" as="alternateBounds" />
          </mxGeometry>
        </mxCell>
      </root>
    </mxGraphModel>
  </diagram>
</mxfile>
